<svg width="28" height="28" viewBox="0 0 28 28" fill="none" xmlns="http://www.w3.org/2000/svg">
<path d="M26.3667 28C23.0222 28 19.7623 27.2611 16.5869 25.7833C13.4115 24.3056 10.5985 22.3352 8.148 19.8722C5.69748 17.4093 3.72711 14.5896 2.23689 11.4131C0.746667 8.23667 0.00103704 4.97674 0 1.63333V0.816667C0 0.531482 0.0259258 0.259259 0.0777777 0H9.17778L10.6167 7.81667L6.18333 12.2889C7.27222 14.1556 8.64007 15.9056 10.2869 17.5389C11.9337 19.1722 13.7418 20.5852 15.7111 21.7778L20.2222 17.2667L28 18.8222V27.9222C27.7407 27.9481 27.4685 27.9679 27.1833 27.9813C26.8981 27.9948 26.6259 28.001 26.3667 28Z" fill="#787878"/>
</svg>
