<svg width="29" height="28" viewBox="0 0 29 28" fill="none" xmlns="http://www.w3.org/2000/svg">
<path d="M10.22 28L9.66 23.52C9.35667 23.4033 9.0706 23.2633 8.8018 23.1C8.533 22.9367 8.27073 22.7617 8.015 22.575L3.85 24.325L0 17.675L3.605 14.945C3.58167 14.7817 3.57 14.6239 3.57 14.4718V13.5282C3.57 13.3761 3.58167 13.2183 3.605 13.055L0 10.325L3.85 3.675L8.015 5.425C8.27167 5.23833 8.54 5.06333 8.82 4.9C9.1 4.73667 9.38 4.59667 9.66 4.48L10.22 0H17.92L18.48 4.48C18.7833 4.59667 19.0694 4.73667 19.3382 4.9C19.607 5.06333 19.8693 5.23833 20.125 5.425L24.29 3.675L28.14 10.325L24.535 13.055C24.5583 13.2183 24.57 13.3761 24.57 13.5282V14.4718C24.57 14.6239 24.5467 14.7817 24.5 14.945L28.105 17.675L24.255 24.325L20.125 22.575C19.8683 22.7617 19.6 22.9367 19.32 23.1C19.04 23.2633 18.76 23.4033 18.48 23.52L17.92 28H10.22ZM14.14 18.9C15.4933 18.9 16.6483 18.4217 17.605 17.465C18.5617 16.5083 19.04 15.3533 19.04 14C19.04 12.6467 18.5617 11.4917 17.605 10.535C16.6483 9.57833 15.4933 9.1 14.14 9.1C12.7633 9.1 11.6023 9.57833 10.6568 10.535C9.71133 11.4917 9.23907 12.6467 9.24 14C9.24 15.3533 9.71227 16.5083 10.6568 17.465C11.6013 18.4217 12.7624 18.9 14.14 18.9Z" fill="#787878"/>
</svg>
