<svg width="67" height="59" viewBox="0 0 67 59" fill="none" xmlns="http://www.w3.org/2000/svg">
<path d="M66.1416 48.2667V58.0592H0.858521V28.6818L66.1416 48.2667ZM56.6429 10.729L53.901 19.738L20.8678 9.94557C20.8134 8.70347 20.514 7.48437 19.9868 6.35838C19.4596 5.23239 18.715 4.22172 17.7959 3.38449C16.8767 2.54726 15.8012 1.89997 14.631 1.47986C13.4608 1.05974 12.2192 0.875086 10.9774 0.936506C9.73529 0.990915 8.5162 1.29032 7.39021 1.81751C6.26422 2.3447 5.25355 3.08927 4.41632 4.00841C3.57908 4.92755 2.9318 6.00312 2.51168 7.17328C2.09157 8.34345 1.90691 9.58512 1.96833 10.8269C2.05834 12.781 2.75216 14.6591 3.95419 16.2024C5.15621 17.7457 6.80728 18.8783 8.67987 19.444C10.5525 20.0097 12.5544 19.9807 14.4099 19.3611C16.2653 18.7415 17.883 17.5617 19.0399 15.9843L52.0731 25.7767L49.3312 34.8511L65.0644 26.3643L56.6429 10.729Z" fill="#787878"/>
</svg>
