<svg width="67" height="68" viewBox="0 0 67 68" fill="none" xmlns="http://www.w3.org/2000/svg">
<path d="M30.1667 63.925C44.895 63.925 56.8333 51.9867 56.8333 37.2583C56.8333 22.53 44.895 10.5917 30.1667 10.5917C15.4383 10.5917 3.5 22.53 3.5 37.2583C3.5 51.9867 15.4383 63.925 30.1667 63.925Z" stroke="#787878" stroke-width="6.66667" stroke-linecap="round" stroke-linejoin="round"/>
<path d="M30.1667 43.925C31.9348 43.925 33.6305 43.2226 34.8807 41.9724C36.131 40.7221 36.8333 39.0264 36.8333 37.2583C36.8333 35.4902 36.131 33.7945 34.8807 32.5443C33.6305 31.294 31.9348 30.5917 30.1667 30.5917C28.3986 30.5917 26.7029 31.294 25.4526 32.5443C24.2024 33.7945 23.5 35.4902 23.5 37.2583C23.5 39.0264 24.2024 40.7221 25.4526 41.9724C26.7029 43.2226 28.3986 43.925 30.1667 43.925ZM30.1667 3.92499C34.5441 3.92499 38.8786 4.78718 42.9228 6.46234C46.967 8.13749 50.6416 10.5928 53.7369 13.6881C56.8322 16.7834 59.2875 20.458 60.9627 24.5022C62.6378 28.5464 63.5 32.8809 63.5 37.2583H50.1767C50.1767 31.9513 48.0685 26.8617 44.3159 23.1091C40.5633 19.3565 35.4736 17.2483 30.1667 17.2483V3.92499Z" stroke="#787878" stroke-width="6.66667" stroke-linecap="round" stroke-linejoin="round"/>
</svg>
