<svg width="80" height="61" viewBox="0 0 80 61" fill="none" xmlns="http://www.w3.org/2000/svg">
<path d="M43.3333 30.925C43.3333 32.7583 41.8333 34.2583 40 34.2583C38.1667 34.2583 36.6667 32.7583 36.6667 30.925C36.6667 29.0917 38.1667 27.5917 40 27.5917C41.8333 27.5917 43.3333 29.0917 43.3333 30.925ZM33.3333 30.925L23.3333 20.925V27.5917H10V34.2583H23.3333V40.925L33.3333 30.925ZM46.6667 30.925L56.6667 40.925V34.2583H70V27.5917H56.6667V20.925L46.6667 30.925ZM68.3333 2.59165L64.7333 6.19165C71.0667 12.5917 75 21.2917 75 30.925C75 40.5917 71.0667 49.2583 64.7333 55.6583L68.3333 59.2583C75.5333 51.9583 80 41.9583 80 30.925C80 19.8917 75.5333 9.89165 68.3333 2.59165ZM18.9667 20.925C22.7 13.0583 30.7333 7.59165 40 7.59165C49.2667 7.59165 57.3 13.0583 61.0667 20.925H68.3333C64.1333 9.25832 53.0667 0.924988 40 0.924988C26.9333 0.924988 15.8667 9.25832 11.6667 20.925H18.9667ZM15.2667 6.19165L11.6667 2.59165C4.46667 9.89165 0 19.8917 0 30.925C0 41.9583 4.46667 51.9583 11.6667 59.2583L15.2667 55.6583C8.93333 49.2583 5 40.5917 5 30.925C5 21.2917 8.93333 12.5917 15.2667 6.19165ZM61.0667 40.925C57.3 48.7917 49.3 54.2583 40 54.2583C30.7 54.2583 22.7 48.7917 18.9667 40.925H11.6667C15.8667 52.5917 26.9333 60.925 40 60.925C53.0667 60.925 64.1333 52.5917 68.3333 40.925H61.0667Z" fill="#787878"/>
</svg>
