<svg width="66" height="54" viewBox="0 0 66 54" fill="none" xmlns="http://www.w3.org/2000/svg">
<path d="M38.6832 4.7107C42.2231 4.71161 45.7138 5.53987 48.8768 7.12941C52.0398 8.71894 54.7874 11.0257 56.9006 13.8657C59.0137 16.7057 60.4338 20.0003 61.0476 23.4866C61.6614 26.9729 61.4518 30.5544 60.4357 33.9454C59.4195 37.3363 57.6248 40.4428 55.1949 43.017C52.765 45.5911 49.767 47.5618 46.4403 48.7716C43.1135 49.9814 39.55 50.3969 36.0341 49.9849C32.5183 49.573 29.1473 48.345 26.1903 46.399V46.3536H26.1222C22.0555 43.656 18.9658 39.7205 17.3104 35.1299C15.6551 30.5392 15.5222 25.5375 16.9315 20.8654C18.3407 16.1934 21.2172 12.0994 25.1349 9.18976C29.0526 6.28013 33.8032 4.70958 38.6832 4.7107ZM16.9343 42.5678C17.8807 43.9307 18.9558 45.1951 20.137 46.3536H2.71891C2.21689 46.3536 1.73543 46.553 1.38045 46.908C1.02548 47.2629 0.82605 47.7444 0.82605 48.2464C0.82605 48.7484 1.02548 49.2299 1.38045 49.5849C1.73543 49.9398 2.21689 50.1393 2.71891 50.1393H25.0243C29.0452 52.5555 33.6355 53.8611 38.3261 53.9227C43.0167 53.9843 47.6397 52.7996 51.7226 50.4897C55.8055 48.1798 59.2021 44.8275 61.5654 40.7753C63.9287 36.723 65.1739 32.116 65.1739 27.425C65.1739 22.7339 63.9287 18.127 61.5654 14.0747C59.2021 10.0224 55.8055 6.67014 51.7226 4.36025C47.6397 2.05037 43.0167 0.8657 38.3261 0.927271C33.6355 0.988842 29.0452 2.29445 25.0243 4.7107H6.50462C6.0026 4.7107 5.52115 4.91013 5.16617 5.26511C4.81119 5.62009 4.61176 6.10154 4.61176 6.60356C4.61176 7.10558 4.81119 7.58703 5.16617 7.94201C5.52115 8.29699 6.0026 8.49642 6.50462 8.49642H20.137C17.6151 10.9611 15.6122 13.9056 14.2462 17.1565C12.8802 20.4073 12.1787 23.8988 12.1832 27.425C12.1832 31.4908 13.0993 35.3371 14.7348 38.7821H10.2903C9.78832 38.7821 9.30686 38.9816 8.95188 39.3365C8.5969 39.6915 8.39748 40.173 8.39748 40.675C8.39748 41.177 8.5969 41.6585 8.95188 42.0134C9.30686 42.3684 9.78832 42.5678 10.2903 42.5678H16.9343ZM28.0718 19.4901C26.3549 21.7789 25.4288 24.5638 25.4332 27.425C25.4332 30.4006 26.4175 33.149 28.0718 35.3598L32.1604 31.2713C31.472 30.1065 31.1098 28.778 31.1118 27.425C31.1118 26.0243 31.4941 24.7068 32.1604 23.5787L28.0718 19.4901ZM30.7483 16.8136L34.8369 20.9022C36.0016 20.2136 37.3302 19.8514 38.6832 19.8536C40.0839 19.8536 41.4013 20.2359 42.5295 20.9022L46.618 16.8136C44.3293 15.0967 41.5443 14.1706 38.6832 14.175C35.7076 14.175 32.9592 15.1593 30.7483 16.8136ZM49.2983 19.4901L45.2098 23.5787C45.8964 24.7443 46.2583 26.0726 46.2576 27.4255C46.2569 28.7784 45.8938 30.1063 45.206 31.2713L49.2945 35.3598C50.9527 33.149 51.9332 30.4006 51.9332 27.425C51.9332 24.4494 50.9527 21.701 49.2983 19.4901ZM46.618 38.0401L42.5295 33.9516C41.3644 34.6387 40.0358 34.9996 38.6832 34.9964C37.2825 34.9964 35.965 34.6141 34.8369 33.9478L30.7483 38.0363C32.9592 39.6945 35.7076 40.675 38.6832 40.675C41.6588 40.675 44.4072 39.6945 46.618 38.0401ZM21.6475 27.425C21.6475 25.1878 22.0881 22.9726 22.9442 20.9057C23.8004 18.8388 25.0552 16.9608 26.6371 15.3789C28.219 13.797 30.097 12.5422 32.1639 11.686C34.2308 10.8299 36.446 10.3893 38.6832 10.3893C40.9204 10.3893 43.1356 10.8299 45.2025 11.686C47.2693 12.5422 49.1473 13.797 50.7293 15.3789C52.3112 16.9608 53.566 18.8388 54.4221 20.9057C55.2783 22.9726 55.7189 25.1878 55.7189 27.425C55.7189 31.9431 53.9241 36.2762 50.7293 39.4711C47.5344 42.6659 43.2013 44.4607 38.6832 44.4607C34.165 44.4607 29.8319 42.6659 26.6371 39.4711C23.4423 36.2762 21.6475 31.9431 21.6475 27.425ZM34.8975 27.425C34.8975 28.429 35.2963 29.3919 36.0063 30.1019C36.7162 30.8118 37.6792 31.2107 38.6832 31.2107C39.6872 31.2107 40.6501 30.8118 41.3601 30.1019C42.0701 29.3919 42.4689 28.429 42.4689 27.425C42.4689 26.421 42.0701 25.458 41.3601 24.7481C40.6501 24.0381 39.6872 23.6393 38.6832 23.6393C37.6792 23.6393 36.7162 24.0381 36.0063 24.7481C35.2963 25.458 34.8975 26.421 34.8975 27.425Z" fill="#787878"/>
</svg>
