<svg width="52" height="53" viewBox="0 0 52 53" fill="none" xmlns="http://www.w3.org/2000/svg">
<path d="M48.1692 52.9286C47.0838 52.9286 46.1733 52.5608 45.4378 51.8253C44.7023 51.0898 44.3358 50.1806 44.3383 49.0977V18.4511H12.9255L16.3732 21.8988C17.0755 22.6011 17.4267 23.495 17.4267 24.5804C17.4267 25.6658 17.0755 26.5597 16.3732 27.262C15.6709 27.9643 14.777 28.3155 13.6916 28.3155C12.6062 28.3155 11.7124 27.9643 11.0101 27.262L1.04988 17.3018C0.666801 16.9187 0.394811 16.5037 0.233916 16.0568C0.0730211 15.6099 -0.00487204 15.131 0.000235745 14.6202C0.000235745 14.1094 0.0806832 13.6306 0.241578 13.1837C0.402473 12.7367 0.671909 12.3217 1.04988 11.9386L11.0101 1.97847C11.7124 1.27615 12.6062 0.924988 13.6916 0.924988C14.777 0.924988 15.6709 1.27615 16.3732 1.97847C17.0755 2.68079 17.4267 3.57465 17.4267 4.66005C17.4267 5.74545 17.0755 6.63932 16.3732 7.34164L12.9255 10.7894H44.3383C46.4453 10.7894 48.2496 11.5402 49.7513 13.0419C51.253 14.5436 52.0025 16.3467 52 18.4511V49.0977C52 50.1831 51.6322 51.0936 50.8967 51.8291C50.1612 52.5646 49.252 52.9311 48.1692 52.9286Z" fill="#787878"/>
</svg>
