<svg width="58" height="58" viewBox="0 0 58 58" fill="none" xmlns="http://www.w3.org/2000/svg">
<path d="M47.9573 50.9443C42.6951 55.5041 35.9629 58.0097 29 58C12.9833 58 0 45.0167 0 29C0 12.9833 12.9833 0 29 0C45.0167 0 58 12.9833 58 29C58 35.1944 56.057 40.9364 52.751 45.646L43.5 29H52.2C52.1996 23.653 50.3522 18.4703 46.9704 14.3286C43.5885 10.1869 38.8799 7.34046 33.641 6.27084C28.402 5.20122 22.9545 5.97406 18.2198 8.45862C13.4851 10.9432 9.75393 14.9869 7.65752 19.9058C5.56111 24.8247 5.22814 30.3168 6.71492 35.4529C8.20171 40.589 11.417 45.0539 15.8168 48.0923C20.2167 51.1307 25.531 52.556 30.8608 52.1272C36.1905 51.6983 41.2086 49.4416 45.066 45.7388L47.9573 50.9443Z" fill="#787878"/>
</svg>
