<svg width="52" height="52" viewBox="0 0 52 52" fill="none" xmlns="http://www.w3.org/2000/svg">
<path d="M3.83058 51.9999C2.74525 51.9999 1.83485 51.6322 1.09939 50.8967C0.363918 50.1613 -0.00254046 49.2521 1.32545e-05 48.1694V17.5248C1.32545e-05 15.418 0.750803 13.6138 2.25238 12.1122C3.75397 10.6107 5.55689 9.86115 7.66114 9.86371H39.0718L35.6243 6.4162C34.922 5.71393 34.5709 4.82013 34.5709 3.7348C34.5709 2.64947 34.922 1.75567 35.6243 1.0534C36.3265 0.351134 37.2203 0 38.3057 0C39.391 0 40.2848 0.351134 40.9871 1.0534L50.9465 11.0129C51.3296 11.3959 51.6016 11.8109 51.7624 12.2578C51.9233 12.7047 52.0025 13.1835 51.9999 13.6943C51.9999 14.205 51.9208 14.6838 51.7624 15.1307C51.6041 15.5776 51.3321 15.9926 50.9465 16.3757L40.9871 26.3351C40.2848 27.0374 39.391 27.3885 38.3057 27.3885C37.2203 27.3885 36.3265 27.0374 35.6243 26.3351C34.922 25.6329 34.5709 24.7391 34.5709 23.6537C34.5709 22.5684 34.922 21.6746 35.6243 20.9723L39.0718 17.5248H7.66114V48.1694C7.66114 49.2547 7.29341 50.1651 6.55794 50.9006C5.82247 51.636 4.91335 52.0025 3.83058 51.9999Z" fill="#787878"/>
</svg>
