<svg width="66" height="44" viewBox="0 0 66 44" fill="none" xmlns="http://www.w3.org/2000/svg">
<path d="M63.7858 43.0692C63.0087 43.506 62.09 43.6162 61.2317 43.3756C60.3733 43.135 59.6457 42.5633 59.2089 41.7863L40.0107 7.64745H36.3694V8.76786C36.3694 9.65931 36.0152 10.5143 35.3849 11.1446C34.7545 11.775 33.8996 12.1291 33.0081 12.1291C32.1167 12.1291 31.2617 11.775 30.6314 11.1446C30.001 10.5143 29.6469 9.65931 29.6469 8.76786V7.64745H26.0056L6.80734 41.7863C6.5935 42.1757 6.30462 42.5187 5.95739 42.7958C5.61015 43.0728 5.21146 43.2782 4.78434 43.4002C4.35723 43.5222 3.91018 43.5583 3.46902 43.5065C3.02786 43.4547 2.60135 43.3159 2.21415 43.0982C1.82694 42.8806 1.48672 42.5883 1.21314 42.2384C0.939571 41.8884 0.738074 41.4877 0.620301 41.0594C0.502527 40.6311 0.470812 40.1837 0.526991 39.7431C0.583169 39.3025 0.726126 38.8774 0.947598 38.4923L18.2971 7.64745H3.87747C2.98602 7.64745 2.13107 7.29332 1.50072 6.66296C0.870369 6.03261 0.516241 5.17767 0.516241 4.28622C0.516241 3.39476 0.870369 2.53982 1.50072 1.90947C2.13107 1.27912 2.98602 0.924988 3.87747 0.924988H62.1388C63.0302 0.924988 63.8852 1.27912 64.5155 1.90947C65.1459 2.53982 65.5 3.39476 65.5 4.28622C65.5 5.17767 65.1459 6.03261 64.5155 6.66296C63.8852 7.29332 63.0302 7.64745 62.1388 7.64745H47.7191L65.0686 38.4923C65.5054 39.2694 65.6156 40.1881 65.375 41.0464C65.1345 41.9047 64.5628 42.6324 63.7858 43.0692ZM33.0081 16.6107C32.1167 16.6107 31.2617 16.9648 30.6314 17.5952C30.001 18.2256 29.6469 19.0805 29.6469 19.972V24.4536C29.6469 25.345 30.001 26.2 30.6314 26.8303C31.2617 27.4607 32.1167 27.8148 33.0081 27.8148C33.8996 27.8148 34.7545 27.4607 35.3849 26.8303C36.0152 26.2 36.3694 25.345 36.3694 24.4536V19.972C36.3694 19.0805 36.0152 18.2256 35.3849 17.5952C34.7545 16.9648 33.8996 16.6107 33.0081 16.6107ZM33.0081 32.2965C32.1167 32.2965 31.2617 32.6506 30.6314 33.2809C30.001 33.9113 29.6469 34.7662 29.6469 35.6577V40.1393C29.6469 41.0308 30.001 41.8857 30.6314 42.5161C31.2617 43.1464 32.1167 43.5006 33.0081 43.5006C33.8996 43.5006 34.7545 43.1464 35.3849 42.5161C36.0152 41.8857 36.3694 41.0308 36.3694 40.1393V35.6577C36.3694 34.7662 36.0152 33.9113 35.3849 33.2809C34.7545 32.6506 33.8996 32.2965 33.0081 32.2965Z" fill="#787878"/>
</svg>
