<svg width="67" height="59" viewBox="0 0 67 59" fill="none" xmlns="http://www.w3.org/2000/svg">
<path d="M66.2031 28.8534V58.2862H0.796875V48.4753L66.2031 28.8534ZM65.1566 9.42779L49.3937 0.924988L52.1407 10.0164L19.0452 19.8274C18.3093 18.8238 17.3827 17.9752 16.3185 17.3301C15.2543 16.6849 14.0733 16.2559 12.8432 16.0676C11.613 15.8793 10.3578 15.9354 9.14938 16.2326C7.94092 16.5298 6.80291 17.0624 5.80045 17.7998C4.7969 18.5357 3.94828 19.4623 3.30315 20.5265C2.65801 21.5907 2.22902 22.7717 2.0407 24.0018C1.85238 25.2319 1.90843 26.4871 2.20566 27.6956C2.50288 28.9041 3.03543 30.0421 3.77286 31.0445C6.84695 35.2959 12.7989 36.1789 17.0176 33.0721C19.3395 31.4043 20.7458 28.7553 20.8766 25.8775L53.9721 16.0665L56.7192 25.158L65.1566 9.42779Z" fill="#787878"/>
</svg>
