<svg width="57" height="56" viewBox="0 0 57 56" fill="none" xmlns="http://www.w3.org/2000/svg">
<path d="M39.9 37.975H28.5L42.75 55.075L57 37.975H45.6V23.725C45.6 17.6781 43.1979 11.8788 38.922 7.60295C34.6462 3.32712 28.8469 0.924988 22.8 0.924988C16.7531 0.924988 10.9538 3.32712 6.67797 7.60295C2.40214 11.8788 0 17.6781 0 23.725V49.375H5.7V23.725C5.7 21.4794 6.1423 19.2558 7.00166 17.1811C7.86101 15.1064 9.12059 13.2213 10.7085 11.6335C12.2964 10.0456 14.1814 8.786 16.2561 7.92665C18.3308 7.06729 20.5544 6.62499 22.8 6.62499C25.0456 6.62499 27.2692 7.06729 29.3439 7.92665C31.4186 8.786 33.3036 10.0456 34.8915 11.6335C36.4794 13.2213 37.739 15.1064 38.5983 17.1811C39.4577 19.2558 39.9 21.4794 39.9 23.725V37.975Z" fill="#787878"/>
</svg>
