<svg width="39" height="63" viewBox="0 0 39 63" fill="none" xmlns="http://www.w3.org/2000/svg">
<path d="M26.7343 7.23424C26.7343 9.15288 25.9722 10.9929 24.6155 12.3496C23.2588 13.7063 21.4187 14.4685 19.5001 14.4685C17.5815 14.4685 15.7414 13.7063 14.3847 12.3496C13.028 10.9929 12.2659 9.15288 12.2659 7.23424C12.2659 5.3156 13.028 3.47554 14.3847 2.11886C15.7414 0.762177 17.5815 0 19.5001 0C21.4187 0 23.2588 0.762177 24.6155 2.11886C25.9722 3.47554 26.7343 5.3156 26.7343 7.23424Z" fill="#787878"/>
<path fill-rule="evenodd" clip-rule="evenodd" d="M21.0736 27.8177C20.8248 27.8074 20.5759 27.8045 20.327 27.809H17.17L16.9066 30.4481C16.4031 35.4831 16.2266 37.5087 16.6751 39.4214C17.1266 41.337 18.1856 43.0704 20.8797 47.3559L28.3309 59.2085C28.6293 59.6957 28.7236 60.2808 28.5933 60.8371C28.4629 61.3933 28.1186 61.8757 27.6349 62.1796C27.1511 62.4836 26.5671 62.5845 26.0094 62.4606C25.4517 62.3367 24.9654 61.9979 24.6559 61.5177L17.2047 49.6651L16.9934 49.3294C14.5772 45.4895 13.087 43.1196 12.4503 40.4169C11.8137 37.7112 12.0944 34.9246 12.5487 30.4076L12.5863 30.014L12.8063 27.8119C11.3594 27.8206 10.283 27.8466 9.42064 27.9537C8.32683 28.0839 7.81753 28.3154 7.45582 28.6048C7.097 28.8942 6.76133 29.3398 6.39384 30.3786C6.00897 31.4695 5.6762 32.9482 5.18138 35.1735L4.30169 39.132C4.17005 39.6871 3.82519 40.1679 3.34173 40.4706C2.85826 40.7733 2.27507 40.8735 1.7183 40.7495C1.16153 40.6256 0.675948 40.2874 0.366607 39.8081C0.0572657 39.3289 -0.0509667 38.7471 0.0653228 38.1887L0.973942 34.1057C1.43115 32.0396 1.8189 30.3034 2.30215 28.9318C2.81433 27.4791 3.51461 26.203 4.74153 25.2192C5.96846 24.2353 7.36322 23.8302 8.89399 23.6421C10.3379 23.4685 12.1176 23.4685 14.2329 23.4685H20.3993C20.7929 23.4685 21.0967 23.4685 21.3832 23.4887C22.9594 23.6016 24.4663 24.1812 25.7119 25.1536C26.9575 26.1261 27.8854 27.4474 28.3772 28.9491C28.4641 29.2211 28.5393 29.5192 28.6377 29.9012L28.6521 29.9706C28.8142 30.6188 28.8634 30.804 28.9097 30.9313C29.5174 32.6849 31.3549 33.6948 33.1605 33.2665C33.2936 33.2376 33.4759 33.1768 34.1097 32.9656L36.2221 32.2624C36.7609 32.1052 37.3397 32.163 37.837 32.4235C38.3342 32.684 38.7111 33.1271 38.8886 33.6596C39.0661 34.1921 39.0304 34.7727 38.7889 35.2794C38.5475 35.7862 38.1191 36.1797 37.5937 36.3773L35.4813 37.0833C35.0478 37.2383 34.6075 37.3735 34.1617 37.4884C32.2435 37.9437 30.2245 37.6707 28.4961 36.7222C26.7677 35.7738 25.4529 34.2176 24.8064 32.355C24.6761 31.9481 24.5632 31.5359 24.4679 31.1194L24.4418 31.021C24.3854 30.778 24.3217 30.5368 24.2508 30.2976C24.027 29.6157 23.6054 29.0157 23.0396 28.5741C22.4738 28.1325 21.7894 27.8692 21.0736 27.8177ZM12.0684 45.5358C12.5472 45.8551 12.8797 46.3515 12.9925 46.9159C13.1054 47.4802 12.9895 48.0663 12.6703 48.5452L3.98917 61.5669C3.8326 61.8074 3.62988 62.0145 3.39273 62.1762C3.15558 62.3378 2.88872 62.4509 2.60759 62.5087C2.32647 62.5665 2.03666 62.568 1.75495 62.5131C1.47325 62.4582 1.20523 62.3479 0.966421 62.1887C0.727612 62.0295 0.522755 61.8245 0.363706 61.5856C0.204658 61.3467 0.0945772 61.0786 0.0398375 60.7969C-0.0149021 60.5151 -0.0132138 60.2253 0.0448049 59.9442C0.102824 59.6631 0.21602 59.3964 0.377841 59.1593L9.05893 46.1377C9.37821 45.6588 9.87464 45.3264 10.439 45.2135C11.0034 45.1006 11.5895 45.2166 12.0684 45.5358Z" fill="#787878"/>
</svg>
