<svg width="18" height="36" viewBox="0 0 18 36" fill="none" xmlns="http://www.w3.org/2000/svg">
<path d="M2.13575 35.5C1.63991 35.5 1.224 35.332 0.887999 34.996C0.551999 34.66 0.384582 34.2447 0.385748 33.75V5.75C0.385748 5.25417 0.553748 4.83825 0.889748 4.50225C1.22575 4.16625 1.64108 3.99883 2.13575 4H5.63575V0.5H12.6357V4H16.1357C16.6316 4 17.0475 4.168 17.3835 4.504C17.7195 4.84 17.8869 5.25533 17.8857 5.75V33.75C17.8857 34.2458 17.7177 34.6617 17.3817 34.9977C17.0457 35.3337 16.6304 35.5012 16.1357 35.5H2.13575ZM3.88575 21.5H14.3857V7.5H3.88575V21.5Z" fill="#808A8D"/>
</svg>
