<svg width="52" height="46" viewBox="0 0 52 46" fill="none" xmlns="http://www.w3.org/2000/svg">
<path d="M18.6857 23.3571C19.9236 23.6841 20.6711 24.9688 20.3441 26.2067L17.3077 37.4882C16.9807 38.7494 15.696 39.4735 14.4581 39.1465C14.1611 39.0721 13.8823 38.9381 13.6386 38.7526C13.395 38.5671 13.1917 38.334 13.0409 38.0675C12.8902 37.801 12.7952 37.5066 12.7618 37.2022C12.7284 36.8978 12.7572 36.5898 12.8464 36.297L15.8362 25.0155C16.1632 23.7542 17.4478 23.0301 18.6857 23.3571ZM28.0286 23.3571C29.2665 23.6841 30.0139 24.9688 29.6869 26.2067L24.852 44.2617C24.525 45.5464 23.2404 46.2471 21.9791 45.9201C20.7411 45.5464 19.9937 44.3084 20.3207 43.0472L25.179 25.0155C25.506 23.7542 26.7906 23.0301 28.0286 23.3571ZM37.3714 23.3571C38.6093 23.6841 39.3568 24.9688 39.0298 26.2067L35.9933 37.4882C35.6663 38.7494 34.3817 39.4735 33.1438 39.1465C32.8467 39.0721 32.568 38.9381 32.3243 38.7526C32.0807 38.5671 31.8774 38.334 31.7266 38.0675C31.5759 37.801 31.4809 37.5066 31.4475 37.2022C31.414 36.8978 31.4428 36.5898 31.5321 36.297L34.5218 25.0155C34.8488 23.7542 36.1335 23.0301 37.3714 23.3571ZM37.3714 18.6857V16.35C37.3714 13.2526 36.141 10.2821 33.9508 8.09199C31.7607 5.90184 28.7902 4.67142 25.6929 4.67142C19.8536 4.67142 15.0654 8.92242 14.1544 14.4581C13.3837 14.1778 12.5428 14.0143 11.6786 14.0143C9.82018 14.0143 8.03789 14.7525 6.7238 16.0666C5.4097 17.3807 4.67145 19.163 4.67145 21.0214C4.67145 23.614 6.07288 25.8797 8.17502 27.0943V27.0709C9.34288 27.7249 9.66988 29.1964 9.03923 30.2708C8.38523 31.3686 7.00716 31.7657 5.83931 31.1117V31.135C4.06079 30.1137 2.58393 28.6403 1.55845 26.8641C0.532964 25.088 -0.00467572 23.0723 3.0635e-05 21.0214C3.0635e-05 17.9241 1.23045 14.9536 3.4206 12.7634C5.61075 10.5733 8.58124 9.34284 11.6786 9.34284C14.0143 3.85392 19.3864 0 25.6929 0C33.7043 0 40.2677 6.21299 40.875 14.0843L42.0428 14.0143C44.5207 14.0143 46.8971 14.9986 48.6492 16.7507C50.4013 18.5028 51.3857 20.8792 51.3857 23.3571C51.3857 26.8607 49.5171 29.827 46.7143 31.4387C45.5464 32.0693 44.1683 31.6956 43.5143 30.5745C42.8837 29.4533 43.2107 28.0285 44.3785 27.3745V27.3979C45.78 26.6038 46.7143 25.0855 46.7143 23.3571C46.7143 22.1182 46.2221 20.93 45.346 20.0539C44.47 19.1779 43.2818 18.6857 42.0428 18.6857H37.3714Z" fill="#808A8D"/>
</svg>
