<svg width="33" height="32" viewBox="0 0 33 32" fill="none" xmlns="http://www.w3.org/2000/svg">
<path d="M16.3697 0C7.53774 0 0.385742 7.168 0.385742 16C0.385742 24.832 7.53774 32 16.3697 32C25.2177 32 32.3857 24.832 32.3857 16C32.3857 7.168 25.2177 0 16.3697 0ZM16.3857 28.8C9.31374 28.8 3.58574 23.072 3.58574 16C3.58574 8.928 9.31374 3.2 16.3857 3.2C23.4577 3.2 29.1857 8.928 29.1857 16C29.1857 23.072 23.4577 28.8 16.3857 28.8ZM16.0337 8H15.9377C15.2977 8 14.7857 8.512 14.7857 9.152V16.704C14.7857 17.264 15.0737 17.792 15.5697 18.08L22.2097 22.064C22.7537 22.384 23.4577 22.224 23.7777 21.68C23.8581 21.5504 23.9115 21.406 23.9349 21.2554C23.9583 21.1048 23.9511 20.951 23.9137 20.8032C23.8764 20.6553 23.8097 20.5166 23.7176 20.3951C23.6256 20.2736 23.51 20.1719 23.3777 20.096L17.1857 16.416V9.152C17.1857 8.512 16.6737 8 16.0337 8Z" fill="#808A8D"/>
</svg>
