<svg width="17" height="22" viewBox="0 0 17 22" fill="none" xmlns="http://www.w3.org/2000/svg">
<path d="M5.49998 8.19178C5.51034 7.39935 5.82974 6.64229 6.39012 6.08191C6.9505 5.52154 7.70756 5.20214 8.49998 5.19178C9.29241 5.20214 10.0495 5.52154 10.6098 6.08191C11.1702 6.64229 11.4896 7.39935 11.5 8.19178C11.4896 8.98421 11.1702 9.74126 10.6098 10.3016C10.0495 10.862 9.29241 11.1814 8.49998 11.1918C7.70756 11.1814 6.9505 10.862 6.39012 10.3016C5.82974 9.74126 5.51034 8.98421 5.49998 8.19178ZM8.49998 17.1918L12.5 18.1918V15.1118C11.2937 15.8382 9.90801 16.2124 8.49998 16.1918C7.09196 16.2124 5.70631 15.8382 4.49998 15.1118V18.1918M8.49998 2.19178C7.71195 2.1774 6.92931 2.32434 6.20015 2.62357C5.471 2.9228 4.81075 3.36799 4.25998 3.93178C3.6901 4.48315 3.23976 5.14588 2.93697 5.87875C2.63419 6.61162 2.48544 7.39896 2.49998 8.19178C2.48956 8.97958 2.64032 9.76119 2.94298 10.4886C3.24564 11.216 3.69381 11.8739 4.25998 12.4218C4.80818 12.991 5.46728 13.4417 6.19655 13.7462C6.92583 14.0506 7.70979 14.2023 8.49998 14.1918C9.29018 14.2023 10.0741 14.0506 10.8034 13.7462C11.5327 13.4417 12.1918 12.991 12.74 12.4218C13.3062 11.8739 13.7543 11.216 14.057 10.4886C14.3597 9.76119 14.5104 8.97958 14.5 8.19178C14.5145 7.39896 14.3658 6.61162 14.063 5.87875C13.7602 5.14588 13.3099 4.48315 12.74 3.93178C12.1892 3.36799 11.529 2.9228 10.7998 2.62357C10.0707 2.32434 9.28802 2.1774 8.49998 2.19178ZM16.5 8.19178C16.4787 9.15166 16.2856 10.1 15.93 10.9918C15.6096 11.8992 15.1248 12.7399 14.5 13.4718V21.1918L8.49998 19.1918L2.49998 21.1918V13.4718C1.20567 12.0182 0.493485 10.1381 0.499984 8.19178C0.48236 7.14236 0.680021 6.10047 1.08077 5.13043C1.48151 4.16038 2.07684 3.28277 2.82998 2.55178C3.56369 1.79188 4.44535 1.19041 5.42055 0.784508C6.39575 0.378605 7.44379 0.176878 8.49998 0.191779C9.55618 0.176878 10.6042 0.378605 11.5794 0.784508C12.5546 1.19041 13.4363 1.79188 14.17 2.55178C14.9231 3.28277 15.5185 4.16038 15.9192 5.13043C16.3199 6.10047 16.5176 7.14236 16.5 8.19178Z" fill="#0087D6"/>
</svg>
