<svg width="84" height="71" viewBox="0 0 84 71" fill="none" xmlns="http://www.w3.org/2000/svg">
<path d="M53.6829 13.8537C57.4927 13.8537 60.6098 10.7366 60.6098 6.92683C60.6098 3.11707 57.4927 0 53.6829 0C49.8732 0 46.7561 3.11707 46.7561 6.92683C46.7561 10.7366 49.8732 13.8537 53.6829 13.8537ZM17.3171 36.3659C7.61951 36.3659 0 43.9854 0 53.6829C0 63.3805 7.61951 71 17.3171 71C27.0146 71 34.6341 63.3805 34.6341 53.6829C34.6341 43.9854 27.0146 36.3659 17.3171 36.3659ZM17.3171 65.8049C10.7366 65.8049 5.19512 60.2634 5.19512 53.6829C5.19512 47.1024 10.7366 41.561 17.3171 41.561C23.8976 41.561 29.439 47.1024 29.439 53.6829C29.439 60.2634 23.8976 65.8049 17.3171 65.8049ZM37.4049 31.1707L45.7171 22.8585L48.4878 25.6293C52.9902 30.1317 58.8781 32.9024 66.1512 32.9024V25.9756C60.9561 25.9756 56.8 23.8976 53.6829 20.7805L47.1024 14.2C45.3707 12.8146 43.639 12.122 41.561 12.122C39.4829 12.122 37.7512 12.8146 36.7122 14.2L27.0146 23.8976C25.6293 25.2829 24.9366 27.0146 24.9366 28.7463C24.9366 30.8244 25.6293 32.5561 27.0146 33.5951L38.0976 43.2927V60.6098H45.0244V39.1366L37.4049 31.1707ZM65.8049 36.3659C56.1073 36.3659 48.4878 43.9854 48.4878 53.6829C48.4878 63.3805 56.1073 71 65.8049 71C75.5024 71 83.122 63.3805 83.122 53.6829C83.122 43.9854 75.5024 36.3659 65.8049 36.3659ZM65.8049 65.8049C59.2244 65.8049 53.6829 60.2634 53.6829 53.6829C53.6829 47.1024 59.2244 41.561 65.8049 41.561C72.3854 41.561 77.9268 47.1024 77.9268 53.6829C77.9268 60.2634 72.3854 65.8049 65.8049 65.8049Z" fill="black"/>
</svg>
