<svg width="86" height="85" viewBox="0 0 86 85" fill="none" xmlns="http://www.w3.org/2000/svg">
<g clip-path="url(#clip0_1_40)">
<path d="M54.5578 7.58929C57.8199 10.0359 60.2296 13.4469 61.4454 17.3392C62.6613 21.2314 62.6217 25.4075 61.3322 29.276C60.0427 33.1445 57.5687 36.5091 54.2607 38.8934C50.9527 41.2777 46.9783 42.5607 42.9006 42.5607C38.8229 42.5607 34.8485 41.2777 31.5405 38.8934C28.2325 36.5091 25.7585 33.1445 24.4691 29.276C23.1796 25.4075 23.1399 21.2314 24.3558 17.3392C25.5716 13.4469 27.9813 10.0359 31.2435 7.58929" stroke="black" stroke-width="6.07143" stroke-linecap="round" stroke-linejoin="round"/>
<path d="M3.4364 55.6749C3.91763 51.6241 5.66167 47.8275 8.4213 44.8234C11.1809 41.8193 14.8161 39.7599 18.8116 38.9374C22.8071 38.1148 26.9601 38.5707 30.682 40.2405C34.4039 41.9102 37.5057 44.7091 39.5479 48.2404C41.5901 51.7717 42.469 55.8562 42.06 59.9149C41.6509 63.9736 39.9748 67.8006 37.2691 70.8534C34.5634 73.9062 30.9654 76.03 26.9852 76.9236C23.005 77.8171 18.8446 77.4353 15.0935 75.832" stroke="black" stroke-width="6.07143" stroke-linecap="round" stroke-linejoin="round"/>
<path d="M70.7079 75.8323C66.9685 77.4202 62.8244 77.792 58.862 76.8951C54.8996 75.9981 51.3196 73.8779 48.6285 70.8344C45.9374 67.7909 44.2715 63.9782 43.8665 59.9358C43.4615 55.8934 44.338 51.826 46.3718 48.3091C48.4057 44.7922 51.494 42.0039 55.1997 40.3388C58.9054 38.6737 63.0409 38.216 67.0211 39.0305C71.0012 39.8451 74.6244 41.8906 77.3781 44.8776C80.1317 47.8647 81.8764 51.642 82.3651 55.6751" stroke="black" stroke-width="6.07143" stroke-linecap="round" stroke-linejoin="round"/>
</g>
<defs>
<clipPath id="clip0_1_40">
<rect width="85" height="85" fill="white" transform="translate(0.400635)"/>
</clipPath>
</defs>
</svg>
