<svg width="95" height="90" viewBox="0 0 95 90" fill="none" xmlns="http://www.w3.org/2000/svg">
<g filter="url(#filter0_d_1_50)">
<path d="M57.4617 73.8H23.2513C17.5974 73.8 13.0013 69.2039 13.0013 63.55C13.0013 57.8961 17.5974 53.3 23.2513 53.3H51.9513C59.8643 53.3 66.3013 46.863 66.3013 38.95C66.3013 31.037 59.8643 24.6 51.9513 24.6H32.0212C30.5155 27.5515 28.6509 30.3057 26.4698 32.8H51.9513C55.342 32.8 58.1013 35.5593 58.1013 38.95C58.1013 42.3407 55.342 45.1 51.9513 45.1H23.2513C13.0792 45.1 4.80127 53.3779 4.80127 63.55C4.80127 73.7221 13.0792 82 23.2513 82H62.5826C60.5707 79.4693 58.8527 76.7184 57.4617 73.8ZM17.1013 0C10.3199 0 4.80127 5.5186 4.80127 12.3C4.80127 25.3708 17.1013 32.8 17.1013 32.8C17.1013 32.8 29.4013 25.3667 29.4013 12.3C29.4013 5.5186 23.8827 0 17.1013 0ZM17.1013 18.45C16.2934 18.4497 15.4934 18.2903 14.7471 17.9809C14.0008 17.6715 13.3228 17.2181 12.7517 16.6467C12.1806 16.0752 11.7277 15.3968 11.4188 14.6503C11.1099 13.9038 10.951 13.1038 10.9513 12.2959C10.9515 11.488 11.1109 10.6881 11.4204 9.94177C11.7298 9.19547 12.1832 8.51742 12.7546 7.94634C13.3261 7.37526 14.0044 6.92233 14.7509 6.61341C15.4974 6.30449 16.2975 6.14563 17.1054 6.1459C18.737 6.14644 20.3016 6.79513 21.4549 7.94924C22.6083 9.10336 23.2559 10.6684 23.2554 12.3C23.2548 13.9316 22.6061 15.4962 21.452 16.6496C20.2979 17.8029 18.7329 18.4505 17.1013 18.45Z" fill="black"/>
<path d="M78.6013 49.2C71.8199 49.2 66.3013 54.7186 66.3013 61.5C66.3013 74.5708 78.6013 82 78.6013 82C78.6013 82 90.9013 74.5667 90.9013 61.5C90.9013 54.7186 85.3827 49.2 78.6013 49.2ZM78.6013 67.65C77.7934 67.6497 76.9934 67.4903 76.2471 67.1809C75.5008 66.8715 74.8228 66.4181 74.2517 65.8467C73.6806 65.2752 73.2277 64.5969 72.9188 63.8504C72.6099 63.1038 72.451 62.3038 72.4513 61.4959C72.4515 60.688 72.6109 59.8881 72.9204 59.1418C73.2298 58.3955 73.6832 57.7174 74.2546 57.1464C74.8261 56.5753 75.5044 56.1223 76.2509 55.8134C76.9974 55.5045 77.7975 55.3456 78.6054 55.3459C80.237 55.3465 81.8016 55.9951 82.9549 57.1493C84.1083 58.3034 84.7559 59.8684 84.7554 61.5C84.7548 63.1316 84.1061 64.6962 82.952 65.8496C81.7979 67.0029 80.2329 67.6506 78.6013 67.65Z" fill="black"/>
</g>
<defs>
<filter id="filter0_d_1_50" x="0.80127" y="0" width="94.1" height="90" filterUnits="userSpaceOnUse" color-interpolation-filters="sRGB">
<feFlood flood-opacity="0" result="BackgroundImageFix"/>
<feColorMatrix in="SourceAlpha" type="matrix" values="0 0 0 0 0 0 0 0 0 0 0 0 0 0 0 0 0 0 127 0" result="hardAlpha"/>
<feOffset dy="4"/>
<feGaussianBlur stdDeviation="2"/>
<feComposite in2="hardAlpha" operator="out"/>
<feColorMatrix type="matrix" values="0 0 0 0 0 0 0 0 0 0 0 0 0 0 0 0 0 0 0.25 0"/>
<feBlend mode="normal" in2="BackgroundImageFix" result="effect1_dropShadow_1_50"/>
<feBlend mode="normal" in="SourceGraphic" in2="effect1_dropShadow_1_50" result="shape"/>
</filter>
</defs>
</svg>
